<svg xmlns="http://www.w3.org/2000/svg"
     width="256" height="128" viewBox="0 0 256 128"
     fill="none">
  <defs>
    <linearGradient id="bracket" x1="8" y1="8" x2="248" y2="120"
                    gradientUnits="userSpaceOnUse">
      <stop offset="0" stop-color="#D27BE5" stop-opacity="0.85"/>
      <stop offset="0.5" stop-color="#59E6DB" stop-opacity="0.95"/>
      <stop offset="1" stop-color="#8CFFF2" stop-opacity="0.85"/>
    </linearGradient>
  </defs>
  <path d="M17 8H13C10.239 8 8 10.239 8 13V17M239 8H243C245.761 8 248 10.239 248 13V17M8 111V115C8 117.761 10.239 120 13 120H17M248 111V115C248 117.761 245.761 120 243 120H239"
        stroke="url(#bracket)" stroke-opacity="0.26" stroke-width="5" stroke-linecap="round" stroke-linejoin="round"/>
  <path d="M17 8H13C10.239 8 8 10.239 8 13V17M239 8H243C245.761 8 248 10.239 248 13V17M8 111V115C8 117.761 10.239 120 13 120H17M248 111V115C248 117.761 245.761 120 243 120H239"
        stroke="url(#bracket)" stroke-width="2" stroke-linecap="round" stroke-linejoin="round"/>
</svg>
