<?xml version="1.0" encoding="utf-8"?>
<svg xmlns="http://www.w3.org/2000/svg" width="300" height="200" viewBox="0 0 300 200" fill="none" data-card-id="shop_chain_index" data-card-face="complete-v1">
  <rect x="5" y="5" width="290" height="190" rx="18" fill="#0E0B26" stroke="#8EA7FF" stroke-width="4"/>
  <g id="card-identity"><path d="M18 18h28v18H18z" fill="#8EA7FF"/></g>
  <g id="card-name"><path d="M58 18h96v18H58z" fill="#F4F0FF"/></g>
  <g id="rarity-track"><path d="M251 20l5 5-5 5-5-5zM265 20l5 5-5 5-5-5z" fill="#F4F0FF"/></g>
  <g id="effect-artwork"><circle cx="88" cy="92" r="18" stroke="#8EA7FF" stroke-width="4"/><circle cx="150" cy="92" r="18" stroke="#59E6DB" stroke-width="4"/><circle cx="212" cy="92" r="18" stroke="#D27BE5" stroke-width="4"/><path d="M106 92h26M168 92h26" stroke="#F4F0FF" stroke-width="4"/></g>
  <g id="effect-summary"><path d="M22 145h112v15H22z" fill="#F4F0FF"/></g>
  <g id="effect-detail"><path d="M22 169h152v10H22z" fill="#AAA4C1"/></g>
  <g id="target-icon"><circle cx="205" cy="172" r="6" stroke="#59E6DB" stroke-width="2"/></g>
  <g id="target-copy"><path d="M248 166h34v13h-34z" fill="#59E6DB"/></g>
</svg>
