<?xml version="1.0" encoding="utf-8"?>
<svg xmlns="http://www.w3.org/2000/svg" width="300" height="200" viewBox="0 0 300 200" fill="none" data-card-id="starter_repeat_2" data-card-face="complete-v1">
  <metadata>{"detail": "本轮生效", "effect": "额外结算 2 次", "id": "starter_repeat_2", "identity": "♠2", "name": "双重复写", "rarity": 0, "rarity_name": "普通", "target": "1 张规则台", "target_type": 1}</metadata>
  <rect x="5" y="5" width="290" height="190" rx="18" fill="#0E0B26" fill-opacity=".96" stroke="#59E6DB" stroke-width="2.5" />
  <path d="M5 38V5h33M262 195h33v-33" stroke="#D27BE5" stroke-width="2.5" stroke-linecap="round" />
  <path d="M16 44h268" stroke="#59E6DB" stroke-opacity=".26" stroke-width="1.5" />
  <rect x="14" y="137" width="272" height="48" rx="10" fill="#080619" fill-opacity=".92" stroke="#59E6DB" stroke-opacity=".28" />
  <g id="card-identity" data-copy="♠2" data-font-size="16">
    <path d="M32.67 27.46 C32.67 28.08 32.54 28.65 32.27 29.18 C32.01 29.71 31.63 30.13 31.15 30.46 C30.67 30.78 30.11 30.95 29.47 30.95 C28.86 30.95 28.32 30.8 27.85 30.51 C27.37 30.23 27.03 29.85 26.83 29.39 C26.78 29.28 26.74 29.19 26.71 29.13 C26.69 29.07 26.64 29.04 26.58 29.04 C26.52 29.04 26.49 29.09 26.49 29.17 C26.48 29.26 26.48 29.31 26.48 29.33 C26.53 30.16 26.7 30.83 26.98 31.32 C27.25 31.82 27.62 32.25 28.06 32.63 C28.15 32.7 28.18 32.77 28.15 32.84 C28.13 32.91 28.1 32.95 28.06 32.95 L23.94 32.95 C23.9 32.95 23.87 32.91 23.84 32.84 C23.81 32.77 23.84 32.7 23.94 32.63 C24.38 32.25 24.75 31.82 25.03 31.32 C25.31 30.83 25.48 30.16 25.52 29.33 C25.52 29.31 25.52 29.26 25.51 29.17 C25.51 29.09 25.48 29.04 25.42 29.04 C25.36 29.04 25.31 29.07 25.29 29.13 C25.26 29.19 25.22 29.28 25.17 29.39 C24.97 29.85 24.63 30.23 24.15 30.51 C23.68 30.8 23.14 30.95 22.53 30.95 C21.9 30.95 21.34 30.78 20.86 30.46 C20.37 30.13 19.99 29.71 19.73 29.18 C19.46 28.65 19.33 28.08 19.33 27.46 C19.33 26.88 19.43 26.35 19.63 25.86 C19.83 25.37 20.09 24.91 20.41 24.5 C20.72 24.08 21.06 23.7 21.41 23.35 C21.76 23.01 22.08 22.7 22.37 22.42 C22.85 21.96 23.33 21.48 23.81 20.97 C24.29 20.46 24.72 19.98 25.1 19.51 C25.49 19.05 25.78 18.67 25.97 18.37 C25.99 18.33 26.01 18.33 26.03 18.37 C26.22 18.67 26.51 19.05 26.9 19.51 C27.28 19.98 27.71 20.46 28.2 20.97 C28.69 21.48 29.16 21.96 29.63 22.42 C29.92 22.7 30.24 23.01 30.59 23.35 C30.94 23.7 31.28 24.08 31.59 24.5 C31.91 24.91 32.17 25.37 32.37 25.86 C32.57 26.35 32.67 26.88 32.67 27.46 Z M34.7 32 L34.7 31.14 C35.86 30 36.83 28.99 37.63 28.12 C38.43 27.25 39.04 26.47 39.46 25.77 C39.87 25.07 40.08 24.41 40.08 23.79 C40.08 23.36 40 22.97 39.85 22.63 C39.69 22.3 39.46 22.04 39.14 21.85 C38.82 21.66 38.41 21.57 37.92 21.57 C37.44 21.57 36.99 21.7 36.58 21.97 C36.17 22.24 35.81 22.56 35.49 22.93 L34.64 22.11 C35.11 21.58 35.62 21.16 36.16 20.85 C36.7 20.54 37.35 20.39 38.1 20.39 C38.8 20.39 39.41 20.53 39.91 20.8 C40.42 21.08 40.81 21.47 41.1 21.97 C41.38 22.47 41.52 23.06 41.52 23.73 C41.52 24.45 41.32 25.17 40.91 25.91 C40.51 26.64 39.95 27.41 39.25 28.22 C38.54 29.02 37.74 29.9 36.85 30.85 C37.15 30.83 37.47 30.81 37.81 30.78 C38.15 30.75 38.47 30.74 38.77 30.74 L42.08 30.74 L42.08 32 Z" fill="#8EA7FF" stroke="#8EA7FF" stroke-width="0.65" stroke-linejoin="round" />
  </g>
  <g id="card-name" data-copy="双重复写" data-font-size="22">
    <path d="M68.85 17.22 L77.12 17.22 L77.12 18.8 L68.85 18.8 Z M76.57 17.22 L76.85 17.22 L77.14 17.15 L78.22 17.46 C77.84 20.67 77.17 23.47 76.22 25.84 C75.26 28.22 74.09 30.22 72.68 31.84 C71.28 33.46 69.7 34.76 67.94 35.74 C67.87 35.59 67.77 35.43 67.65 35.26 C67.52 35.08 67.39 34.91 67.24 34.74 C67.09 34.57 66.96 34.44 66.84 34.33 C68.49 33.51 69.98 32.34 71.31 30.81 C72.64 29.29 73.77 27.42 74.68 25.21 C75.59 23.01 76.22 20.47 76.57 17.59 Z M70.94 18.58 C71.3 21 71.81 23.25 72.46 25.32 C73.12 27.4 73.99 29.21 75.08 30.77 C76.18 32.32 77.54 33.53 79.16 34.4 C79.03 34.5 78.89 34.64 78.73 34.81 C78.58 34.98 78.44 35.14 78.31 35.31 C78.17 35.48 78.06 35.65 77.98 35.81 C76.27 34.8 74.86 33.47 73.74 31.83 C72.62 30.18 71.72 28.26 71.03 26.06 C70.35 23.86 69.81 21.44 69.4 18.8 Z M59.41 17.22 L66.91 17.22 L66.91 18.8 L59.41 18.8 Z M66.29 17.22 L66.58 17.22 L66.87 17.15 L67.92 17.46 C67.61 20.45 67.1 23.12 66.37 25.47 C65.64 27.81 64.74 29.84 63.66 31.54 C62.59 33.24 61.36 34.64 59.98 35.74 C59.89 35.61 59.78 35.46 59.64 35.29 C59.5 35.12 59.35 34.96 59.2 34.81 C59.04 34.65 58.9 34.53 58.77 34.44 C59.74 33.74 60.63 32.84 61.45 31.76 C62.28 30.67 63.01 29.41 63.66 27.98 C64.32 26.54 64.87 24.95 65.31 23.21 C65.76 21.47 66.09 19.61 66.29 17.61 Z M59.61 22.04 L60.84 21.11 C61.54 21.93 62.26 22.81 62.98 23.75 C63.71 24.69 64.41 25.64 65.09 26.6 C65.78 27.56 66.39 28.48 66.94 29.36 C67.49 30.24 67.94 31.04 68.3 31.76 L66.89 32.88 C66.57 32.16 66.14 31.36 65.6 30.46 C65.07 29.57 64.47 28.63 63.81 27.65 C63.15 26.66 62.45 25.69 61.73 24.73 C61 23.77 60.3 22.87 59.61 22.04 Z M81.17 33.72 L100.88 33.72 L100.88 35.06 L81.14 35.06 Z M81.28 19.44 L100.77 19.42 L100.75 20.78 L81.28 20.78 Z M82.79 30.51 L99.49 30.48 L99.47 31.8 L82.79 31.8 Z M90.1 17.2 L91.75 17.2 L91.73 34.38 L90.1 34.36 Z M97.75 15.66 L98.63 16.93 C97.65 17.11 96.54 17.27 95.3 17.4 C94.06 17.54 92.76 17.66 91.4 17.76 C90.03 17.85 88.66 17.93 87.28 18 C85.9 18.06 84.57 18.1 83.28 18.12 C83.28 17.93 83.24 17.71 83.16 17.45 C83.08 17.19 83 16.98 82.93 16.82 C84.2 16.78 85.53 16.72 86.9 16.66 C88.27 16.59 89.62 16.51 90.94 16.41 C92.27 16.32 93.52 16.21 94.68 16.07 C95.85 15.94 96.87 15.8 97.75 15.66 Z M85.08 26.06 L85.1 27.76 L97.01 27.78 L96.98 26.08 Z M85.08 23.29 L85.1 24.96 L97.01 24.98 L96.98 23.31 Z M83.5 22.12 L98.66 22.12 L98.66 28.94 L83.5 28.97 Z M108.34 24.28 L108.34 25.78 L118.57 25.78 L118.57 24.28 Z M108.34 21.71 L108.34 23.16 L118.57 23.16 L118.57 21.71 Z M106.69 20.5 L120.28 20.5 L120.28 26.99 L106.69 26.99 Z M107.87 15.52 L109.37 15.99 C108.97 16.79 108.49 17.58 107.93 18.36 C107.36 19.14 106.76 19.86 106.1 20.54 C105.45 21.21 104.79 21.82 104.11 22.34 C104.05 22.23 103.96 22.08 103.83 21.91 C103.69 21.75 103.56 21.58 103.43 21.41 C103.3 21.24 103.17 21.11 103.06 21.02 C103.99 20.36 104.9 19.55 105.78 18.59 C106.66 17.63 107.36 16.61 107.87 15.52 Z M107.48 17.66 L121.87 17.66 L121.87 19.04 L106.77 19.04 Z M109.48 26.52 L110.91 27.03 C110.46 27.72 109.92 28.39 109.29 29.04 C108.67 29.7 108.01 30.29 107.31 30.84 C106.62 31.38 105.92 31.86 105.23 32.29 C105.15 32.2 105.03 32.09 104.89 31.95 C104.75 31.81 104.61 31.67 104.45 31.54 C104.3 31.41 104.16 31.3 104.05 31.21 C105.09 30.67 106.1 29.98 107.08 29.15 C108.06 28.32 108.86 27.45 109.48 26.52 Z M108.56 28.39 L118.83 28.39 L118.83 29.67 L107.5 29.67 Z M118.35 28.39 L118.7 28.39 L118.96 28.31 L120 28.99 C119.23 30.07 118.25 31 117.05 31.78 C115.85 32.56 114.5 33.22 113 33.75 C111.5 34.29 109.93 34.71 108.28 35.04 C106.63 35.36 104.99 35.6 103.36 35.76 C103.33 35.56 103.25 35.31 103.12 35.02 C102.99 34.72 102.86 34.48 102.73 34.29 C104.3 34.17 105.87 33.97 107.44 33.7 C109.02 33.42 110.52 33.05 111.93 32.6 C113.35 32.14 114.61 31.58 115.72 30.92 C116.82 30.26 117.7 29.49 118.35 28.61 Z M108.58 29.19 C109.24 29.95 110.07 30.62 111.06 31.2 C112.06 31.78 113.19 32.27 114.46 32.66 C115.73 33.06 117.1 33.38 118.58 33.63 C120.05 33.88 121.59 34.05 123.19 34.14 C123.01 34.33 122.84 34.56 122.67 34.85 C122.5 35.14 122.36 35.38 122.24 35.59 C120.66 35.46 119.13 35.24 117.65 34.95 C116.18 34.66 114.8 34.27 113.51 33.79 C112.22 33.32 111.05 32.74 110.01 32.07 C108.97 31.39 108.08 30.6 107.35 29.69 Z M125.72 16.71 L144.28 16.71 L144.28 21.02 L142.59 21.02 L142.59 18.25 L127.37 18.25 L127.37 21.02 L125.72 21.02 Z M130.97 21.24 L141.58 21.24 L141.58 22.7 L130.97 22.7 Z M130.07 25.49 L141.03 25.49 L141.03 26.99 L130.07 26.99 Z M126 29.36 L138.48 29.36 L138.48 30.88 L126 30.88 Z M140.52 25.49 L142.17 25.49 C142.17 25.49 142.17 25.54 142.16 25.63 C142.15 25.73 142.15 25.84 142.15 25.96 C142.15 26.09 142.14 26.19 142.11 26.26 C141.93 28.08 141.75 29.57 141.58 30.73 C141.4 31.88 141.21 32.78 140.99 33.41 C140.78 34.04 140.53 34.49 140.24 34.77 C139.99 35.02 139.72 35.2 139.43 35.29 C139.15 35.39 138.8 35.45 138.39 35.48 C138.02 35.51 137.51 35.51 136.86 35.5 C136.21 35.48 135.52 35.46 134.8 35.41 C134.79 35.18 134.73 34.91 134.64 34.62 C134.54 34.33 134.41 34.07 134.25 33.85 C135.01 33.91 135.73 33.95 136.4 33.97 C137.06 33.99 137.54 34 137.84 34 C138.09 34 138.29 33.99 138.44 33.96 C138.6 33.93 138.73 33.86 138.85 33.76 C139.08 33.57 139.3 33.17 139.49 32.57 C139.68 31.97 139.86 31.12 140.03 30.01 C140.2 28.9 140.35 27.48 140.5 25.75 Z M130.6 18.69 L132.25 18.87 C132.07 19.73 131.88 20.67 131.67 21.67 C131.45 22.68 131.24 23.65 131.03 24.58 C130.82 25.51 130.62 26.31 130.45 26.99 L128.73 26.99 C128.94 26.27 129.15 25.43 129.38 24.48 C129.61 23.52 129.83 22.54 130.04 21.52 C130.25 20.5 130.44 19.56 130.6 18.69 Z" fill="#F4F0FF" stroke="#F4F0FF" stroke-width="0.8" stroke-linejoin="round" />
  </g>
  <g id="rarity-track">
    <path d="M251 20l5 5-5 5-5-5z" fill="#59E6DB" stroke="#59E6DB" stroke-width="1.5" />
    <path d="M265 20l5 5-5 5-5-5z" fill="none" stroke="#5A526F" stroke-width="1.5" />
    <path d="M279 20l5 5-5 5-5-5z" fill="none" stroke="#5A526F" stroke-width="1.5" />
  </g>
  <g id="effect-artwork">
    <path d="M92 115V69h116v46" stroke="#59E6DB" stroke-width="3" stroke-linecap="round" stroke-linejoin="round" />
    <path d="M108 69v-9h84v9" stroke="#59E6DB" stroke-width="3" stroke-linecap="round" stroke-linejoin="round" />
    <path d="M112 104V87M130 104V80M148 104V92" stroke="#59E6DB" stroke-width="3" stroke-linecap="round" stroke-linejoin="round" />
    <path d="M181 108c28-8 37-34 20-52-13-14-38-15-52-4" stroke="#D27BE5" stroke-width="4" stroke-linecap="round" stroke-linejoin="round" />
    <path d="M151 42l-2 10 10 2" stroke="#D27BE5" stroke-width="4" stroke-linecap="round" stroke-linejoin="round" />
    <rect x="182" y="82" width="22" height="22" rx="5" fill="#151038" stroke="#D27BE5" stroke-width="3" opacity=".78" />
    <rect x="210" y="82" width="22" height="22" rx="5" fill="#151038" stroke="#D27BE5" stroke-width="3" opacity=".78" />
  </g>
  <g id="effect-summary" data-copy="额外结算 2 次" data-font-size="20.5">
    <path d="M32.56 142.01 L41.54 142.01 L41.54 143.37 L32.56 143.37 Z M36.49 142.79 L37.83 143.12 C37.63 143.65 37.44 144.19 37.23 144.74 C37.03 145.29 36.83 145.76 36.64 146.15 L35.45 145.83 C35.57 145.55 35.7 145.24 35.83 144.87 C35.96 144.51 36.08 144.15 36.21 143.78 C36.33 143.41 36.43 143.08 36.49 142.79 Z M32.89 145.5 L40.78 145.5 L40.78 155.13 L39.42 155.13 L39.42 146.75 L34.2 146.75 L34.2 155.17 L32.89 155.17 Z M36.21 147.9 L37.56 147.9 C37.53 149.59 37.46 151.08 37.34 152.37 C37.23 153.65 36.99 154.76 36.64 155.7 C36.28 156.63 35.75 157.43 35.05 158.09 C34.34 158.74 33.38 159.29 32.17 159.73 C32.1 159.56 31.99 159.37 31.83 159.15 C31.67 158.93 31.53 158.76 31.39 158.64 C32.5 158.24 33.37 157.76 34.01 157.18 C34.66 156.61 35.13 155.9 35.44 155.06 C35.75 154.22 35.95 153.21 36.04 152.04 C36.14 150.86 36.19 149.48 36.21 147.9 Z M37.13 156.28 L37.95 155.34 C38.4 155.65 38.88 156 39.38 156.38 C39.89 156.77 40.37 157.14 40.82 157.51 C41.27 157.88 41.64 158.21 41.93 158.5 L41.06 159.58 C40.78 159.28 40.41 158.94 39.97 158.55 C39.52 158.16 39.05 157.76 38.55 157.37 C38.05 156.97 37.58 156.61 37.13 156.28 Z M23.25 142.75 L32.19 142.75 L32.19 145.85 L30.79 145.85 L30.79 144.02 L24.6 144.02 L24.6 145.85 L23.25 145.85 Z M24.58 153.23 L31 153.23 L31 159.46 L29.56 159.46 L29.56 154.48 L25.98 154.48 L25.98 159.5 L24.58 159.5 Z M25.12 157.57 L30.2 157.57 L30.2 158.82 L25.12 158.82 Z M26.37 144.7 L27.76 144.94 C27.35 145.81 26.82 146.67 26.18 147.53 C25.54 148.39 24.72 149.17 23.72 149.86 C23.67 149.77 23.59 149.66 23.48 149.53 C23.37 149.4 23.26 149.27 23.15 149.16 C23.04 149.04 22.93 148.96 22.82 148.9 C23.71 148.31 24.45 147.64 25.04 146.87 C25.64 146.11 26.08 145.38 26.37 144.7 Z M26.55 146.13 L30.26 146.13 L30.26 147.34 L25.96 147.34 Z M29.97 146.13 L30.28 146.13 L30.57 146.07 L31.41 146.63 C30.9 147.75 30.23 148.75 29.39 149.64 C28.55 150.53 27.62 151.3 26.59 151.96 C25.57 152.61 24.51 153.14 23.43 153.55 C23.39 153.42 23.34 153.26 23.26 153.08 C23.19 152.91 23.11 152.73 23.04 152.57 C22.96 152.41 22.88 152.28 22.8 152.18 C23.81 151.84 24.79 151.39 25.73 150.84 C26.67 150.28 27.52 149.63 28.26 148.88 C29.01 148.13 29.58 147.3 29.97 146.4 Z M26.39 141.17 L27.78 140.84 C28 141.21 28.23 141.62 28.47 142.05 C28.71 142.49 28.89 142.87 29.03 143.18 L27.56 143.59 C27.45 143.28 27.28 142.89 27.05 142.43 C26.83 141.98 26.61 141.56 26.39 141.17 Z M25.05 149.48 L26.04 148.55 C26.54 148.8 27.08 149.07 27.66 149.37 C28.23 149.67 28.8 149.98 29.37 150.28 C29.94 150.59 30.47 150.89 30.98 151.19 C31.48 151.48 31.92 151.75 32.27 152 L31.22 153.06 C30.88 152.83 30.47 152.56 29.98 152.25 C29.5 151.95 28.97 151.63 28.41 151.31 C27.84 150.99 27.27 150.67 26.68 150.35 C26.1 150.03 25.56 149.73 25.05 149.48 Z M47.05 143.92 L52.09 143.92 L52.09 145.38 L47.05 145.38 Z M55.03 140.78 L56.62 140.78 L56.62 159.62 L55.03 159.62 Z M45.84 149.84 L46.76 148.82 C47.2 149.08 47.66 149.38 48.15 149.73 C48.63 150.08 49.09 150.43 49.52 150.79 C49.95 151.14 50.3 151.46 50.56 151.73 L49.61 152.9 C49.35 152.61 49.01 152.28 48.58 151.91 C48.15 151.55 47.69 151.18 47.21 150.82 C46.74 150.46 46.28 150.13 45.84 149.84 Z M47.24 140.76 L48.77 141.05 C48.49 142.35 48.14 143.6 47.73 144.8 C47.32 146 46.85 147.12 46.33 148.14 C45.81 149.17 45.24 150.08 44.61 150.87 C44.52 150.77 44.39 150.66 44.23 150.54 C44.08 150.42 43.91 150.3 43.74 150.17 C43.57 150.05 43.42 149.95 43.3 149.89 C43.93 149.17 44.5 148.34 45 147.38 C45.51 146.43 45.95 145.39 46.32 144.26 C46.7 143.13 47 141.97 47.24 140.76 Z M51.6 143.92 L51.89 143.92 L52.2 143.86 L53.26 144.19 C52.91 146.89 52.32 149.24 51.51 151.23 C50.7 153.22 49.7 154.89 48.53 156.24 C47.35 157.59 46.03 158.67 44.57 159.48 C44.49 159.36 44.37 159.21 44.21 159.04 C44.05 158.87 43.89 158.71 43.73 158.56 C43.57 158.41 43.42 158.29 43.28 158.21 C44.74 157.47 46.04 156.48 47.17 155.25 C48.31 154.01 49.25 152.49 50.01 150.68 C50.77 148.88 51.3 146.75 51.6 144.29 Z M56.01 147.92 L57.18 146.99 C57.77 147.45 58.38 147.95 59.03 148.51 C59.68 149.07 60.3 149.63 60.88 150.17 C61.46 150.72 61.93 151.2 62.3 151.63 L61.03 152.71 C60.69 152.28 60.24 151.77 59.67 151.21 C59.1 150.64 58.5 150.07 57.86 149.5 C57.23 148.92 56.61 148.4 56.01 147.92 Z M64.29 154.23 C64.28 154.12 64.24 153.97 64.17 153.79 C64.1 153.61 64.04 153.42 63.97 153.23 C63.91 153.04 63.85 152.87 63.78 152.73 C64.01 152.69 64.26 152.55 64.52 152.31 C64.78 152.08 65.07 151.77 65.4 151.4 C65.58 151.22 65.84 150.92 66.19 150.5 C66.54 150.08 66.92 149.58 67.35 149 C67.77 148.43 68.2 147.81 68.64 147.14 C69.07 146.47 69.48 145.79 69.85 145.11 L71.26 145.97 C70.39 147.34 69.44 148.67 68.43 149.97 C67.42 151.27 66.4 152.41 65.38 153.39 L65.38 153.43 C65.38 153.43 65.32 153.46 65.21 153.5 C65.1 153.55 64.98 153.62 64.83 153.7 C64.69 153.78 64.56 153.87 64.46 153.96 C64.35 154.06 64.29 154.15 64.29 154.23 Z M64.29 154.23 L64.23 152.94 L65.03 152.41 L71.16 151.4 C71.15 151.61 71.15 151.84 71.17 152.11 C71.19 152.38 71.21 152.59 71.24 152.76 C69.81 153.01 68.65 153.23 67.79 153.39 C66.92 153.55 66.26 153.68 65.8 153.78 C65.34 153.88 65.01 153.96 64.79 154.03 C64.58 154.09 64.41 154.16 64.29 154.23 Z M64.15 149.25 C64.12 149.14 64.08 148.99 64.01 148.8 C63.95 148.61 63.89 148.41 63.82 148.21 C63.75 148.02 63.68 147.85 63.61 147.71 C63.81 147.67 64 147.54 64.19 147.32 C64.38 147.1 64.58 146.83 64.78 146.5 C64.91 146.34 65.08 146.07 65.3 145.69 C65.51 145.32 65.76 144.87 66.03 144.35 C66.31 143.83 66.58 143.28 66.84 142.69 C67.11 142.1 67.35 141.51 67.55 140.91 L69.13 141.56 C68.77 142.38 68.38 143.2 67.95 144.01 C67.52 144.83 67.07 145.6 66.61 146.35 C66.14 147.09 65.67 147.77 65.19 148.37 L65.19 148.41 C65.19 148.41 65.14 148.44 65.04 148.49 C64.94 148.55 64.81 148.62 64.67 148.71 C64.53 148.8 64.4 148.89 64.3 148.98 C64.2 149.08 64.15 149.17 64.15 149.25 Z M64.15 149.25 L64.13 148.1 L64.91 147.61 L69.23 147.24 C69.19 147.43 69.16 147.65 69.13 147.9 C69.1 148.14 69.09 148.35 69.09 148.51 C68.12 148.62 67.33 148.71 66.71 148.79 C66.1 148.86 65.62 148.93 65.29 148.98 C64.95 149.04 64.7 149.09 64.54 149.13 C64.37 149.17 64.24 149.21 64.15 149.25 Z M63.72 156.92 C64.36 156.81 65.09 156.67 65.9 156.52 C66.71 156.36 67.57 156.19 68.48 156 C69.39 155.82 70.3 155.64 71.2 155.46 L71.32 156.88 C70.04 157.18 68.75 157.46 67.46 157.74 C66.17 158.01 65.01 158.26 63.98 158.5 Z M71.36 143.53 L82.33 143.53 L82.33 145.01 L71.36 145.01 Z M71.88 148.2 L81.98 148.2 L81.98 149.68 L71.88 149.68 Z M73.25 157.35 L80.67 157.35 L80.67 158.74 L73.25 158.74 Z M76.1 140.76 L77.68 140.76 L77.68 148.96 L76.1 148.96 Z M72.41 151.77 L81.47 151.77 L81.47 159.54 L79.93 159.54 L79.93 153.17 L73.91 153.17 L73.91 159.62 L72.41 159.62 Z M84.65 154.89 L102.93 154.89 L102.93 156.16 L84.65 156.16 Z M88.67 148.63 L88.67 149.84 L99.16 149.84 L99.16 148.63 Z M88.67 150.83 L88.67 152.06 L99.16 152.06 L99.16 150.83 Z M88.67 146.48 L88.67 147.65 L99.16 147.65 L99.16 146.48 Z M87.13 145.44 L100.76 145.44 L100.76 153.1 L87.13 153.1 Z M96.66 152.84 L98.24 152.84 L98.24 159.6 L96.66 159.6 Z M86.86 142.3 L93.48 142.3 L93.48 143.57 L86.86 143.57 Z M94.75 142.3 L102.77 142.3 L102.77 143.57 L94.75 143.57 Z M87.25 140.68 L88.69 141.07 C88.3 141.96 87.82 142.82 87.24 143.66 C86.66 144.5 86.07 145.21 85.47 145.79 C85.39 145.7 85.27 145.61 85.11 145.5 C84.95 145.39 84.79 145.28 84.64 145.18 C84.48 145.08 84.34 144.99 84.22 144.92 C84.83 144.39 85.41 143.75 85.95 143.01 C86.49 142.26 86.92 141.49 87.25 140.68 Z M95.31 140.68 L96.78 141.03 C96.46 141.92 96.02 142.75 95.48 143.53 C94.94 144.31 94.38 144.97 93.79 145.5 C93.7 145.42 93.56 145.33 93.39 145.23 C93.22 145.14 93.05 145.04 92.88 144.95 C92.71 144.87 92.56 144.79 92.44 144.74 C93.05 144.25 93.61 143.64 94.12 142.93 C94.62 142.21 95.02 141.46 95.31 140.68 Z M88.17 143.3 L89.47 142.87 C89.71 143.19 89.96 143.55 90.2 143.95 C90.45 144.35 90.63 144.71 90.74 145.01 L89.4 145.5 C89.29 145.21 89.12 144.86 88.89 144.44 C88.66 144.03 88.42 143.65 88.17 143.3 Z M96.78 143.24 L98.03 142.71 C98.36 143.02 98.7 143.39 99.05 143.81 C99.4 144.22 99.65 144.6 99.82 144.92 L98.53 145.52 C98.38 145.2 98.13 144.83 97.8 144.4 C97.46 143.97 97.13 143.58 96.78 143.24 Z M89.88 152.82 L91.43 152.82 L91.43 154.48 C91.43 154.91 91.37 155.37 91.24 155.83 C91.11 156.29 90.85 156.76 90.47 157.21 C90.09 157.67 89.53 158.11 88.81 158.53 C88.09 158.94 87.13 159.32 85.94 159.66 C85.83 159.5 85.68 159.3 85.5 159.07 C85.31 158.84 85.14 158.65 84.98 158.52 C86.08 158.24 86.96 157.94 87.61 157.6 C88.26 157.27 88.75 156.92 89.08 156.55 C89.4 156.18 89.62 155.81 89.72 155.45 C89.82 155.09 89.88 154.75 89.88 154.44 Z M109.5 158 L109.5 156.9 C111.07 155.52 112.36 154.26 113.38 153.12 C114.4 151.99 115.15 150.93 115.65 149.96 C116.14 148.98 116.38 148.06 116.38 147.2 C116.38 146.63 116.29 146.11 116.09 145.66 C115.89 145.21 115.58 144.86 115.17 144.61 C114.76 144.35 114.25 144.23 113.62 144.23 C113 144.23 112.43 144.39 111.91 144.72 C111.38 145.05 110.91 145.46 110.5 145.97 L109.41 144.9 C110.02 144.23 110.66 143.7 111.36 143.3 C112.06 142.91 112.89 142.71 113.84 142.71 C114.74 142.71 115.52 142.89 116.17 143.25 C116.82 143.62 117.32 144.13 117.69 144.79 C118.05 145.45 118.23 146.23 118.23 147.12 C118.23 148.12 117.98 149.13 117.48 150.15 C116.98 151.18 116.29 152.22 115.41 153.28 C114.53 154.34 113.5 155.42 112.33 156.53 C112.72 156.5 113.14 156.47 113.57 156.43 C114 156.4 114.4 156.38 114.79 156.38 L118.95 156.38 L118.95 158 Z M133.88 140.78 L135.52 141.09 C135.26 142.25 134.95 143.39 134.59 144.49 C134.24 145.6 133.84 146.64 133.41 147.6 C132.97 148.56 132.49 149.41 131.97 150.13 C131.87 150.05 131.73 149.95 131.54 149.83 C131.35 149.72 131.16 149.61 130.98 149.51 C130.79 149.4 130.63 149.32 130.49 149.27 C131.03 148.59 131.51 147.79 131.93 146.89 C132.35 145.99 132.73 145.02 133.07 143.98 C133.4 142.94 133.67 141.88 133.88 140.78 Z M133.67 144.27 L142.47 144.27 L142.47 145.79 L133 145.79 Z M142.02 144.27 L142.24 144.27 L142.55 144.19 L143.68 144.8 C143.5 145.47 143.29 146.15 143.04 146.83 C142.79 147.51 142.54 148.16 142.27 148.77 C142.01 149.38 141.76 149.92 141.52 150.4 C141.41 150.33 141.28 150.26 141.11 150.18 C140.95 150.11 140.79 150.03 140.64 149.95 C140.49 149.86 140.35 149.8 140.21 149.74 C140.43 149.32 140.66 148.81 140.89 148.22 C141.12 147.64 141.34 147.03 141.54 146.4 C141.75 145.77 141.91 145.19 142.02 144.66 Z M125.74 143.3 L126.66 142.2 C127.13 142.44 127.61 142.72 128.13 143.04 C128.64 143.35 129.12 143.67 129.57 143.99 C130.02 144.31 130.39 144.62 130.68 144.9 L129.7 146.15 C129.42 145.87 129.06 145.55 128.62 145.21 C128.17 144.87 127.7 144.53 127.2 144.19 C126.71 143.84 126.22 143.55 125.74 143.3 Z M125.43 156.51 C125.83 156 126.27 155.4 126.76 154.71 C127.26 154.02 127.76 153.29 128.27 152.52 C128.78 151.75 129.26 150.99 129.7 150.23 L130.88 151.26 C130.47 151.96 130.04 152.67 129.58 153.41 C129.12 154.15 128.66 154.87 128.19 155.58 C127.72 156.29 127.27 156.96 126.85 157.57 Z M137.67 148.82 C137.96 150.31 138.38 151.68 138.93 152.92 C139.48 154.16 140.2 155.23 141.07 156.13 C141.95 157.02 143.01 157.7 144.27 158.15 C144.16 158.24 144.04 158.37 143.9 158.54 C143.76 158.7 143.64 158.87 143.52 159.04 C143.41 159.21 143.31 159.36 143.25 159.5 C141.92 158.94 140.81 158.16 139.9 157.17 C139 156.18 138.27 155 137.7 153.63 C137.13 152.25 136.68 150.73 136.34 149.04 Z M136.23 146.79 L137.87 146.79 L137.87 148.08 C137.87 148.75 137.83 149.48 137.75 150.25 C137.67 151.03 137.5 151.84 137.24 152.66 C136.98 153.49 136.59 154.32 136.06 155.14 C135.53 155.97 134.83 156.77 133.96 157.55 C133.08 158.33 131.98 159.06 130.66 159.73 C130.59 159.6 130.48 159.47 130.34 159.32 C130.2 159.16 130.05 159.02 129.91 158.87 C129.77 158.73 129.63 158.62 129.49 158.54 C130.75 157.92 131.79 157.26 132.62 156.55 C133.44 155.84 134.1 155.11 134.58 154.36 C135.07 153.62 135.43 152.87 135.67 152.13 C135.91 151.39 136.06 150.67 136.13 149.98 C136.2 149.29 136.23 148.65 136.23 148.06 Z" fill="#F4F0FF" stroke="#F4F0FF" stroke-width="0.72" stroke-linejoin="round" />
  </g>
  <g id="effect-detail" data-copy="本轮生效" data-font-size="14.5">
    <path d="M22.94 169.88 L35.59 169.88 L35.59 170.98 L22.94 170.98 Z M25.28 176.35 L33.19 176.35 L33.19 177.45 L25.28 177.45 Z M28.67 166.84 L29.82 166.84 L29.82 180.16 L28.67 180.16 Z M27.61 170.24 L28.6 170.55 C28.24 171.55 27.79 172.52 27.24 173.44 C26.7 174.36 26.09 175.21 25.44 175.96 C24.78 176.72 24.08 177.35 23.35 177.86 C23.29 177.77 23.21 177.67 23.12 177.56 C23.02 177.45 22.92 177.34 22.82 177.24 C22.72 177.14 22.62 177.05 22.54 176.97 C23.25 176.54 23.93 175.97 24.58 175.26 C25.23 174.56 25.81 173.77 26.34 172.9 C26.86 172.04 27.28 171.15 27.61 170.24 Z M30.83 170.29 C31.16 171.19 31.59 172.06 32.11 172.91 C32.64 173.76 33.24 174.53 33.9 175.22 C34.56 175.9 35.26 176.46 35.99 176.89 C35.91 176.95 35.81 177.04 35.7 177.15 C35.58 177.26 35.48 177.38 35.38 177.49 C35.29 177.61 35.2 177.72 35.14 177.83 C34.39 177.33 33.69 176.71 33.02 175.96 C32.35 175.22 31.75 174.38 31.21 173.46 C30.67 172.53 30.22 171.57 29.86 170.58 Z M46.68 167.36 C46.96 167.95 47.3 168.54 47.72 169.12 C48.13 169.71 48.57 170.25 49.04 170.75 C49.52 171.25 49.98 171.67 50.43 172 C50.35 172.06 50.25 172.14 50.15 172.24 C50.05 172.34 49.96 172.44 49.87 172.55 C49.78 172.66 49.7 172.75 49.64 172.84 C49.17 172.46 48.7 172 48.22 171.44 C47.73 170.88 47.28 170.28 46.85 169.63 C46.43 168.98 46.07 168.33 45.77 167.69 Z M45.84 166.79 L46.98 167 C46.71 167.65 46.38 168.33 45.98 169.03 C45.59 169.73 45.12 170.42 44.57 171.09 C44.02 171.76 43.39 172.39 42.68 172.96 C42.62 172.87 42.55 172.77 42.46 172.67 C42.37 172.57 42.28 172.47 42.18 172.38 C42.09 172.29 42 172.22 41.92 172.16 C42.59 171.66 43.18 171.1 43.68 170.48 C44.19 169.87 44.63 169.24 44.99 168.61 C45.35 167.97 45.63 167.36 45.84 166.79 Z M43.91 172.16 L45 172.16 L45 178.16 C45 178.42 45.05 178.59 45.14 178.67 C45.24 178.75 45.46 178.78 45.81 178.78 C45.88 178.78 46.02 178.78 46.23 178.78 C46.44 178.78 46.67 178.78 46.93 178.78 C47.18 178.78 47.41 178.78 47.64 178.78 C47.86 178.78 48.02 178.78 48.13 178.78 C48.33 178.78 48.48 178.74 48.59 178.64 C48.69 178.54 48.76 178.35 48.8 178.06 C48.85 177.77 48.88 177.34 48.9 176.78 C49.02 176.87 49.18 176.96 49.38 177.04 C49.57 177.12 49.74 177.18 49.9 177.22 C49.86 177.89 49.78 178.41 49.67 178.78 C49.56 179.15 49.39 179.41 49.17 179.55 C48.94 179.7 48.62 179.77 48.2 179.77 C48.14 179.77 48.03 179.77 47.86 179.77 C47.69 179.77 47.5 179.77 47.28 179.77 C47.06 179.77 46.84 179.77 46.62 179.77 C46.4 179.77 46.21 179.77 46.04 179.77 C45.88 179.77 45.77 179.77 45.71 179.77 C45.23 179.77 44.87 179.72 44.61 179.63 C44.34 179.54 44.16 179.38 44.06 179.14 C43.96 178.9 43.91 178.58 43.91 178.16 Z M48.35 172.81 L49.1 173.72 C48.68 174.02 48.2 174.33 47.69 174.65 C47.17 174.96 46.65 175.26 46.13 175.54 C45.61 175.83 45.12 176.08 44.68 176.29 L44.08 175.49 C44.52 175.28 44.99 175.02 45.51 174.72 C46.03 174.41 46.54 174.09 47.04 173.76 C47.54 173.43 47.98 173.11 48.35 172.81 Z M37.18 168.53 L42.31 168.53 L42.31 169.58 L37.18 169.58 Z M39.86 170.75 L40.84 170.75 L40.84 180.09 L39.86 180.09 Z M37.08 176.58 C37.54 176.5 38.07 176.42 38.66 176.32 C39.25 176.22 39.88 176.12 40.54 176 C41.2 175.88 41.86 175.76 42.52 175.64 L42.59 176.6 C41.66 176.78 40.73 176.96 39.81 177.15 C38.88 177.34 38.05 177.5 37.31 177.64 Z M37.65 174.19 C37.63 174.12 37.6 174.03 37.57 173.92 C37.53 173.81 37.49 173.69 37.45 173.57 C37.41 173.45 37.37 173.35 37.33 173.27 C37.44 173.25 37.55 173.12 37.66 172.9 C37.77 172.69 37.88 172.41 37.99 172.09 C38.05 171.93 38.14 171.67 38.25 171.32 C38.37 170.96 38.49 170.53 38.62 170.04 C38.75 169.55 38.88 169.03 39 168.48 C39.12 167.92 39.22 167.37 39.28 166.82 L40.3 167.03 C40.16 167.8 39.99 168.58 39.78 169.37 C39.58 170.15 39.35 170.91 39.1 171.64 C38.84 172.36 38.59 173.02 38.34 173.61 L38.34 173.62 C38.34 173.62 38.31 173.64 38.24 173.68 C38.17 173.72 38.09 173.77 37.99 173.83 C37.9 173.9 37.81 173.96 37.75 174.02 C37.68 174.08 37.65 174.14 37.65 174.19 Z M37.65 174.19 L37.65 173.29 L38.24 173 L42.29 173 L42.29 173.99 L38.69 173.99 C38.45 173.99 38.23 174 38.03 174.04 C37.83 174.08 37.7 174.13 37.65 174.19 Z M54.03 169.64 L64.06 169.64 L64.06 170.69 L54.03 170.69 Z M53.39 173.9 L63.54 173.9 L63.54 174.94 L53.39 174.94 Z M51.8 178.64 L64.76 178.64 L64.76 179.7 L51.8 179.7 Z M57.71 166.82 L58.84 166.82 L58.84 179.16 L57.71 179.16 Z M54.47 167.05 L55.57 167.3 C55.36 168.05 55.12 168.77 54.83 169.48 C54.54 170.19 54.22 170.86 53.87 171.47 C53.52 172.08 53.15 172.62 52.75 173.09 C52.69 173.02 52.59 172.95 52.47 172.87 C52.35 172.79 52.23 172.71 52.11 172.63 C51.99 172.55 51.88 172.48 51.78 172.43 C52.18 172.01 52.54 171.51 52.88 170.93 C53.21 170.36 53.51 169.74 53.78 169.08 C54.05 168.43 54.28 167.75 54.47 167.05 Z M66.34 168.94 L72.94 168.94 L72.94 169.93 L66.34 169.93 Z M67.95 170.3 L68.89 170.58 C68.72 170.99 68.51 171.42 68.28 171.85 C68.04 172.28 67.8 172.69 67.54 173.07 C67.29 173.46 67.04 173.8 66.78 174.09 C66.73 174.03 66.66 173.96 66.56 173.88 C66.46 173.79 66.37 173.71 66.27 173.63 C66.17 173.55 66.08 173.48 66.01 173.43 C66.38 173.02 66.74 172.53 67.09 171.98 C67.43 171.42 67.72 170.86 67.95 170.3 Z M70.49 172.67 L71.52 172.85 C71.07 174.39 70.46 175.74 69.67 176.91 C68.88 178.08 67.93 179.05 66.82 179.8 C66.77 179.73 66.7 179.65 66.61 179.55 C66.52 179.44 66.42 179.35 66.32 179.25 C66.22 179.15 66.13 179.07 66.05 179.02 C67.14 178.35 68.06 177.47 68.81 176.38 C69.55 175.3 70.11 174.06 70.49 172.67 Z M70.34 170.69 L71.15 170.26 C71.38 170.51 71.6 170.79 71.81 171.09 C72.03 171.38 72.23 171.68 72.41 171.97 C72.59 172.26 72.73 172.52 72.82 172.75 L71.95 173.26 C71.87 173.02 71.73 172.75 71.56 172.46 C71.39 172.16 71.2 171.86 70.99 171.55 C70.78 171.24 70.57 170.95 70.34 170.69 Z M67.5 173.78 L68.31 173.2 C68.68 173.56 69.06 173.95 69.45 174.36 C69.84 174.78 70.22 175.2 70.57 175.63 C70.93 176.06 71.26 176.48 71.55 176.88 C71.85 177.28 72.09 177.65 72.29 177.99 L71.42 178.67 C71.24 178.33 71.01 177.96 70.72 177.54 C70.43 177.13 70.11 176.71 69.75 176.27 C69.39 175.83 69.02 175.4 68.63 174.97 C68.25 174.55 67.87 174.15 67.5 173.78 Z M74.52 169.46 L79.33 169.46 L79.33 170.48 L74.52 170.48 Z M74.85 166.81 L75.87 166.97 C75.7 167.91 75.5 168.84 75.26 169.73 C75.02 170.62 74.73 171.46 74.4 172.22 C74.06 172.99 73.68 173.68 73.26 174.28 C73.21 174.2 73.14 174.11 73.05 174.01 C72.97 173.91 72.88 173.8 72.78 173.7 C72.68 173.6 72.6 173.52 72.52 173.45 C72.92 172.92 73.27 172.3 73.56 171.6 C73.85 170.9 74.1 170.14 74.32 169.32 C74.53 168.51 74.71 167.67 74.85 166.81 Z M77.51 170.1 L78.55 170.23 C78.31 171.89 77.95 173.36 77.48 174.63 C77.02 175.9 76.39 176.99 75.6 177.91 C74.81 178.82 73.82 179.59 72.63 180.21 C72.59 180.14 72.52 180.05 72.43 179.95 C72.34 179.85 72.25 179.75 72.15 179.64 C72.05 179.53 71.96 179.45 71.88 179.39 C73.05 178.84 74.01 178.14 74.77 177.29 C75.52 176.44 76.11 175.42 76.55 174.22 C76.98 173.03 77.3 171.66 77.51 170.1 Z M74.65 171.35 C74.9 172.52 75.24 173.62 75.68 174.66 C76.11 175.7 76.65 176.62 77.29 177.41 C77.93 178.21 78.67 178.83 79.52 179.28 C79.44 179.35 79.35 179.43 79.25 179.53 C79.15 179.63 79.06 179.74 78.97 179.85 C78.88 179.96 78.81 180.06 78.75 180.15 C77.87 179.64 77.11 178.95 76.46 178.1 C75.81 177.24 75.27 176.26 74.82 175.15 C74.37 174.03 74 172.83 73.72 171.55 Z M68.41 167.17 L69.31 166.81 C69.55 167.08 69.77 167.38 69.98 167.71 C70.19 168.05 70.35 168.34 70.44 168.58 L69.49 169.01 C69.4 168.75 69.25 168.45 69.05 168.11 C68.84 167.76 68.63 167.45 68.41 167.17 Z" fill="#AAA4C1" stroke="#AAA4C1" stroke-width="0.45" stroke-linejoin="round" />
  </g>
  <g id="target-icon">
    <path d="M198 168h14M200 168v10h10V168M203 172h4" fill="none" stroke="#59E6DB" stroke-width="1.8" stroke-linecap="round" stroke-linejoin="round" />
  </g>
  <g id="target-copy" data-copy="1 张规则台" data-font-size="13.92">
    <path d="M215.24 178 L215.22 176.94 L217.51 176.94 L217.51 169.62 L215.68 169.62 L215.68 168.81 C216.14 168.73 216.54 168.63 216.87 168.51 C217.21 168.39 217.52 168.24 217.8 168.08 L218.76 168.09 L218.77 176.94 L220.82 176.94 L220.82 178 Z M228.9 173.26 L229.94 173.26 C229.94 173.26 229.94 173.31 229.94 173.42 C229.93 173.53 229.92 173.62 229.91 173.69 C229.86 174.77 229.8 175.65 229.73 176.32 C229.67 176.99 229.59 177.49 229.51 177.84 C229.43 178.19 229.32 178.44 229.18 178.59 C229.06 178.73 228.92 178.82 228.77 178.88 C228.62 178.93 228.44 178.97 228.23 178.99 C228.05 179.01 227.81 179.02 227.49 179.01 C227.17 179.01 226.82 179 226.46 178.98 C226.45 178.84 226.42 178.68 226.37 178.5 C226.31 178.33 226.24 178.17 226.16 178.04 C226.51 178.07 226.84 178.09 227.14 178.1 C227.45 178.11 227.67 178.11 227.8 178.11 C227.92 178.11 228.02 178.1 228.1 178.09 C228.18 178.07 228.24 178.03 228.3 177.96 C228.39 177.87 228.47 177.66 228.54 177.34 C228.61 177.02 228.68 176.55 228.74 175.91 C228.8 175.28 228.85 174.45 228.9 173.42 Z M226.48 169.97 L227.45 169.97 C227.42 170.43 227.39 170.91 227.34 171.44 C227.29 171.96 227.25 172.46 227.2 172.94 C227.15 173.42 227.1 173.84 227.05 174.2 L226.07 174.2 C226.13 173.83 226.18 173.4 226.24 172.91 C226.3 172.43 226.34 171.93 226.39 171.41 C226.43 170.9 226.46 170.42 226.48 169.97 Z M226.74 173.26 L229.16 173.26 L229.16 174.2 L226.62 174.2 Z M226.84 169.97 L228.86 169.97 L228.86 167.81 L226.14 167.81 L226.14 166.84 L229.86 166.84 L229.86 170.96 L226.84 170.96 Z M230.08 171.71 L238.18 171.71 L238.18 172.71 L230.08 172.71 Z M236.62 166.94 L237.64 167.23 C237.35 167.75 237.01 168.26 236.62 168.76 C236.22 169.26 235.8 169.72 235.35 170.15 C234.9 170.58 234.44 170.95 233.98 171.28 C233.93 171.21 233.86 171.14 233.76 171.06 C233.65 170.97 233.55 170.88 233.45 170.79 C233.35 170.7 233.26 170.63 233.17 170.58 C233.87 170.15 234.52 169.61 235.13 168.97 C235.74 168.33 236.23 167.65 236.62 166.94 Z M234.91 172.29 C235.1 173.13 235.35 173.92 235.67 174.67 C235.99 175.42 236.38 176.08 236.83 176.67 C237.29 177.26 237.8 177.73 238.38 178.07 C238.26 178.17 238.13 178.31 237.99 178.47 C237.85 178.63 237.74 178.78 237.65 178.92 C237.04 178.5 236.5 177.97 236.03 177.33 C235.55 176.68 235.15 175.95 234.81 175.13 C234.47 174.31 234.19 173.43 233.98 172.5 Z M231.45 179.19 L231.35 178.25 L231.74 177.84 L234.77 176.68 C234.78 176.78 234.79 176.89 234.79 177.01 C234.79 177.13 234.79 177.25 234.8 177.36 C234.81 177.47 234.82 177.57 234.83 177.65 C234.14 177.95 233.58 178.19 233.16 178.36 C232.73 178.54 232.4 178.68 232.18 178.78 C231.95 178.88 231.78 178.96 231.68 179.03 C231.58 179.09 231.5 179.14 231.45 179.19 Z M231.45 179.19 C231.43 179.1 231.39 179 231.34 178.89 C231.29 178.78 231.23 178.67 231.17 178.56 C231.11 178.45 231.06 178.36 231 178.29 C231.13 178.23 231.27 178.13 231.42 177.98 C231.57 177.84 231.64 177.63 231.64 177.35 L231.64 166.59 L232.67 166.59 L232.67 178.21 C232.67 178.21 232.63 178.23 232.55 178.27 C232.46 178.32 232.36 178.37 232.24 178.45 C232.12 178.52 232 178.6 231.88 178.68 C231.76 178.77 231.65 178.85 231.57 178.94 C231.49 179.03 231.45 179.11 231.45 179.19 Z M239.67 168.62 L244.56 168.62 L244.56 169.59 L239.67 169.59 Z M239.37 171.85 L244.73 171.85 L244.73 172.84 L239.37 172.84 Z M241.66 166.45 L242.65 166.45 L242.65 170.96 C242.65 171.58 242.63 172.24 242.58 172.95 C242.54 173.65 242.43 174.37 242.25 175.09 C242.08 175.81 241.82 176.5 241.47 177.17 C241.12 177.84 240.63 178.44 240.02 178.98 C239.97 178.9 239.91 178.82 239.82 178.73 C239.73 178.63 239.64 178.54 239.55 178.45 C239.45 178.37 239.36 178.29 239.27 178.24 C239.84 177.77 240.29 177.22 240.62 176.62 C240.94 176.01 241.18 175.37 241.33 174.71 C241.48 174.05 241.57 173.39 241.61 172.75 C241.64 172.11 241.66 171.52 241.66 170.97 Z M242.41 173.51 C242.52 173.6 242.65 173.74 242.81 173.92 C242.97 174.1 243.15 174.3 243.35 174.54 C243.55 174.77 243.75 175 243.95 175.24 C244.14 175.48 244.32 175.69 244.48 175.87 C244.63 176.06 244.75 176.2 244.82 176.29 L244.1 177.07 C243.98 176.88 243.82 176.65 243.61 176.37 C243.41 176.08 243.19 175.79 242.96 175.48 C242.73 175.18 242.51 174.89 242.3 174.63 C242.09 174.36 241.92 174.16 241.79 174.01 Z M245.39 166.99 L251.28 166.99 L251.28 174.4 L250.24 174.4 L250.24 167.91 L246.4 167.91 L246.4 174.4 L245.39 174.4 Z M248.3 173.97 L249.25 173.97 L249.25 177.51 C249.25 177.71 249.28 177.84 249.35 177.9 C249.42 177.96 249.54 177.99 249.71 177.99 L250.7 177.99 C250.85 177.99 250.96 177.93 251.03 177.82 C251.11 177.71 251.16 177.49 251.2 177.15 C251.24 176.82 251.26 176.33 251.27 175.69 C251.4 175.78 251.54 175.87 251.7 175.94 C251.86 176.02 252 176.07 252.12 176.1 C252.08 176.82 252.02 177.38 251.95 177.77 C251.88 178.17 251.74 178.44 251.55 178.59 C251.36 178.75 251.08 178.82 250.7 178.82 L249.57 178.82 C249.12 178.82 248.8 178.74 248.6 178.57 C248.4 178.41 248.3 178.09 248.3 177.63 Z M247.84 169.09 L248.82 169.09 L248.82 171.78 C248.82 172.37 248.76 173 248.66 173.66 C248.55 174.32 248.35 174.97 248.05 175.63 C247.76 176.28 247.33 176.91 246.76 177.5 C246.2 178.09 245.46 178.63 244.54 179.1 C244.51 179.04 244.45 178.96 244.37 178.86 C244.29 178.76 244.21 178.66 244.13 178.57 C244.04 178.47 243.96 178.4 243.89 178.35 C244.76 177.9 245.46 177.41 245.99 176.87 C246.52 176.32 246.92 175.76 247.19 175.18 C247.46 174.6 247.63 174.02 247.72 173.44 C247.8 172.86 247.84 172.3 247.84 171.77 Z M257.17 176.42 L257.82 175.76 C258.11 175.98 258.42 176.23 258.74 176.51 C259.06 176.78 259.36 177.05 259.65 177.31 C259.95 177.57 260.18 177.8 260.36 178 L259.69 178.77 C259.52 178.56 259.3 178.32 259.01 178.04 C258.72 177.77 258.42 177.48 258.1 177.19 C257.78 176.91 257.47 176.65 257.17 176.42 Z M254.12 167.06 L260.13 167.06 L260.13 175.47 L259.12 175.47 L259.12 168.01 L255.1 168.01 L255.1 175.51 L254.12 175.51 Z M264.3 166.41 L265.33 166.41 L265.33 177.64 C265.33 178 265.28 178.27 265.18 178.45 C265.08 178.62 264.92 178.76 264.7 178.85 C264.47 178.93 264.15 178.99 263.75 179.01 C263.34 179.03 262.82 179.05 262.18 179.05 C262.16 178.94 262.13 178.83 262.09 178.71 C262.05 178.58 262 178.45 261.95 178.32 C261.9 178.18 261.85 178.07 261.79 177.97 C262.28 177.99 262.73 178 263.13 178 C263.53 178 263.79 178 263.92 177.99 C264.05 177.99 264.15 177.96 264.21 177.91 C264.27 177.86 264.3 177.77 264.3 177.64 Z M261.69 167.56 L262.68 167.56 L262.68 175.9 L261.69 175.9 Z M256.59 168.95 L257.57 168.95 L257.57 172.94 C257.57 173.47 257.53 174.03 257.44 174.59 C257.35 175.16 257.18 175.71 256.93 176.26 C256.68 176.81 256.32 177.33 255.84 177.82 C255.36 178.31 254.73 178.75 253.95 179.13 C253.92 179.06 253.86 178.97 253.79 178.87 C253.71 178.77 253.63 178.68 253.54 178.58 C253.46 178.48 253.38 178.41 253.31 178.35 C254.05 178 254.63 177.6 255.07 177.17 C255.5 176.73 255.83 176.28 256.05 175.8 C256.27 175.33 256.41 174.85 256.48 174.36 C256.55 173.86 256.59 173.38 256.59 172.91 Z M269.63 177.33 L277.47 177.33 L277.47 178.35 L269.63 178.35 Z M269.1 173.24 L278.04 173.24 L278.04 179.07 L276.92 179.07 L276.92 174.24 L270.16 174.24 L270.16 179.1 L269.1 179.1 Z M274.95 168.44 L275.77 167.88 C276.22 168.28 276.69 168.72 277.17 169.2 C277.66 169.69 278.1 170.17 278.51 170.65 C278.92 171.13 279.24 171.57 279.48 171.96 L278.59 172.6 C278.36 172.21 278.05 171.77 277.65 171.28 C277.26 170.79 276.82 170.29 276.34 169.8 C275.87 169.3 275.4 168.85 274.95 168.44 Z M268.36 172.07 C268.35 172 268.32 171.9 268.28 171.77 C268.23 171.65 268.19 171.52 268.15 171.38 C268.1 171.25 268.06 171.13 268.01 171.04 C268.17 171.01 268.34 170.93 268.53 170.78 C268.71 170.63 268.92 170.44 269.16 170.22 C269.28 170.1 269.46 169.91 269.71 169.65 C269.96 169.39 270.24 169.08 270.55 168.72 C270.85 168.36 271.17 167.96 271.49 167.54 C271.81 167.12 272.11 166.69 272.38 166.25 L273.43 166.71 C272.98 167.33 272.52 167.92 272.03 168.5 C271.54 169.08 271.05 169.62 270.54 170.13 C270.03 170.64 269.54 171.09 269.04 171.5 L269.04 171.54 C269.04 171.54 269.01 171.56 268.95 171.59 C268.88 171.62 268.8 171.67 268.7 171.72 C268.61 171.78 268.52 171.84 268.46 171.9 C268.39 171.96 268.36 172.02 268.36 172.07 Z M268.36 172.07 L268.35 171.25 L269.13 170.85 L278.02 170.44 C278.03 170.58 278.05 170.75 278.07 170.93 C278.09 171.12 278.11 171.26 278.13 171.38 C276.74 171.45 275.54 171.52 274.54 171.57 C273.53 171.63 272.68 171.67 271.99 171.71 C271.31 171.75 270.75 171.78 270.31 171.81 C269.87 171.85 269.53 171.88 269.28 171.9 C269.03 171.92 268.84 171.95 268.7 171.97 C268.57 172 268.45 172.04 268.36 172.07 Z" fill="#59E6DB" stroke="#59E6DB" stroke-width="0.45" stroke-linejoin="round" />
  </g>
</svg>